<svg xmlns="http://www.w3.org/2000/svg" viewBox="0 0 46 46"><path d="M45.41 21.75l-5.63-4.46 2.05-7.08c.14-.47.05-.98-.22-1.38-.28-.4-.71-.64-1.18-.65l-7.06-.13-2.3-6.99c-.15-.47-.51-.83-.95-.98-.46-.16-.95-.08-1.33.2L23 4.53 17.21.29c-.38-.29-.87-.37-1.32-.21-.45.15-.8.52-.95.98l-2.3 6.99-7.06.14c-.47.01-.91.25-1.19.64-.28.4-.36.91-.22 1.38l2.06 7.08L.6 21.75c-.38.29-.6.76-.6 1.25s.22.96.6 1.25l5.63 4.46-2.05 7.08c-.14.47-.05.98.22 1.38.28.4.71.64 1.18.65l7.06.14 2.3 6.99c.15.47.51.83.95.98.45.15.94.08 1.32-.21L23 41.47l5.79 4.24c.25.19.55.29.86.29.16 0 .31-.03.46-.08.45-.15.8-.52.95-.98l2.3-6.99 7.06-.14c.47-.01.91-.25 1.18-.65.28-.4.36-.91.22-1.38l-2.06-7.08 5.63-4.46c.37-.3.6-.76.6-1.25.01-.48-.21-.95-.58-1.24z" fill="#ffb701"/><path d="M25.84 36h-4.57v-4.46h4.57V36zm-.14-17.84l-1.12 10.92H22.5l-1.09-10.89v-7.2h4.29v7.17z" fill="#fff"/></svg>