<?xml version="1.0" standalone="no"?>
<!DOCTYPE svg PUBLIC "-//W3C//DTD SVG 20010904//EN"
 "http://www.w3.org/TR/2001/REC-SVG-20010904/DTD/svg10.dtd">
<svg version="1.0" xmlns="http://www.w3.org/2000/svg"
 width="1280.000000pt" height="1144.000000pt" viewBox="0 0 1280.000000 1144.000000"
 preserveAspectRatio="xMidYMid meet">
<metadata>
Created by potrace 1.15, written by Peter Selinger 2001-2017
</metadata>
<g transform="translate(0.000000,1144.000000) scale(0.100000,-0.100000)"
fill="#FF7D05" stroke="none">
<path d="M5818 10883 c-833 -783 -2433 -2293 -3003 -2833 -264 -250 -739 -700
-1055 -1000 -640 -606 -1152 -1096 -1517 -1449 l-243 -234 0 -140 0 -139 83 6
c290 21 940 39 1692 48 l240 3 6 -335 c29 -1496 262 -2695 685 -3530 164 -324
324 -550 554 -780 148 -149 159 -157 235 -188 358 -144 1048 -239 2125 -294
375 -19 1455 -16 1815 6 918 54 1485 143 1894 297 128 48 159 69 280 184 270
259 480 621 659 1140 262 754 415 1822 454 3148 l12 419 1033 -4 1033 -3 0
126 0 127 -74 83 c-137 156 -671 676 -1621 1579 -280 266 -545 518 -587 560
l-78 76 0 78 c0 43 -22 506 -50 1029 -58 1122 -70 1375 -71 1637 -1 107 -4
218 -7 247 l-7 52 -205 -114 c-299 -168 -422 -212 -620 -222 -194 -9 -301 15
-688 159 -134 49 -246 88 -248 85 -3 -2 11 -123 30 -268 19 -145 40 -313 45
-374 13 -131 34 -575 29 -600 -2 -11 -151 124 -498 451 -732 692 -1297 1231
-1452 1386 l-137 138 -75 0 -76 0 -592 -557z"/>
</g>
</svg>
